<?xml version="1.0" encoding="UTF-8" standalone="no"?>
<!-- Created with Inkscape (http://www.inkscape.org/) -->

<svg
   width="82.05278mm"
   height="18.566004mm"
   viewBox="0 0 82.05278 18.566004"
   version="1.1"
   id="svg1910"
   inkscape:version="1.2.1 (9c6d41e410, 2022-07-14, custom)"
   sodipodi:docname="mpluslogo_2.svg"
   xmlns:inkscape="http://www.inkscape.org/namespaces/inkscape"
   xmlns:sodipodi="http://sodipodi.sourceforge.net/DTD/sodipodi-0.dtd"
   xmlns="http://www.w3.org/2000/svg"
   xmlns:svg="http://www.w3.org/2000/svg">
  <sodipodi:namedview
     id="namedview1912"
     pagecolor="#ffffff"
     bordercolor="#666666"
     borderopacity="1.0"
     inkscape:showpageshadow="2"
     inkscape:pageopacity="0.0"
     inkscape:pagecheckerboard="0"
     inkscape:deskcolor="#d1d1d1"
     inkscape:document-units="mm"
     showgrid="false"
     inkscape:zoom="4.2830992"
     inkscape:cx="99.694165"
     inkscape:cy="81.483053"
     inkscape:window-width="2268"
     inkscape:window-height="1272"
     inkscape:window-x="144"
     inkscape:window-y="180"
     inkscape:window-maximized="1"
     inkscape:current-layer="layer1">
    <inkscape:grid
       type="xygrid"
       id="grid6300"
       originx="0.013229166"
       originy="0.018708916" />
  </sodipodi:namedview>
  <defs
     id="defs1907" />
  <g
     inkscape:label="Layer 1"
     inkscape:groupmode="layer"
     id="layer1"
     transform="translate(0.01322917,0.01870892)">
    <g
       id="g2599-6-4-1-6-67"
       transform="matrix(1.8418071,0,0,1.8418071,-167.16435,-103.29921)"
       style="fill:#b3b3b3;stroke-width:0.126416;stroke-linecap:square;stroke-linejoin:round;stroke-dasharray:none" />
    <g
       id="g2599-6-4-1-6-67-7"
       transform="matrix(1.8418071,0,0,1.8418071,-143.33863,-103.26179)"
       style="fill:#b3b3b3;stroke-width:0.126416;stroke-linecap:square;stroke-linejoin:round;stroke-dasharray:none" />
    <g
       id="g2599-6-4-1-6-67-7-6"
       transform="matrix(1.8418071,0,0,1.8418071,-138.82759,-109.85766)"
       style="fill:#b3b3b3;stroke-width:0.126416;stroke-linecap:square;stroke-linejoin:round;stroke-dasharray:none" />
    <g
       id="g2599-6-4-1-6-67-7-6-1"
       transform="matrix(1.8418071,0,0,1.8418071,-128.21746,-108.53548)"
       style="fill:#b3b3b3;stroke-width:0.126416;stroke-linecap:square;stroke-linejoin:round;stroke-dasharray:none" />
    <g
       id="g2599-6-4-1-6-67-7-6-1-3"
       transform="matrix(1.8418071,0,0,1.8418071,-114.31226,-107.22183)"
       style="fill:#b3b3b3;stroke-width:0.126416;stroke-linecap:square;stroke-linejoin:round;stroke-dasharray:none" />
    <path
       id="path3391-9-0-3-1-6-9"
       style="fill:none;stroke:#000000;stroke-width:0.1;stroke-linecap:square;stroke-linejoin:round;stroke-dasharray:none;stroke-opacity:1;fill-opacity:1"
       d="m 66.145833,17.197917 h -3.96875 L 59.53125,14.552083 v -3.307291 l 1.322916,-1.322917 1.322917,1.322917 v 1.984375 L 63.5,14.552083 64.161458,13.890625 62.838541,12.567708 V 10.583333 L 61.515625,9.2604167 V 7.9375 h 4.630208 v 1.984375 1.984375 l 1.322917,1.322917 V 15.875 Z m -43.65625,-6.614584 -1.322916,-1.3229163 3.96875,-3.96875 h 1.984375 V 7.9375 H 31.75 v 1.984375 l -1.322917,1.322917 H 29.104167 L 31.75,13.890625 V 15.875 h -1.322917 l -1.322916,-1.322917 h -0.661459 v 1.984375 L 27.78125,17.197917 H 27.119792 L 26.458333,16.536458 V 13.229167 L 23.8125,10.583333 Z m -5.291658,6.614583 V 15.874999 L 18.52084,14.552083 V 11.90625 l 1.322915,-1.322917 1.322915,1.322917 1.322914,-4.5e-5 2.64583,2.645834 v 2.645877 l -1.322915,1.322872 -1.322915,-1.322916 H 21.16667 l -1.322915,1.322961 -1.322915,-4.5e-5 z M -2.2930834e-8,13.242401 7.9374997,5.304898 5.2916665,2.6590629 7.9999996,0.01322777 13.229166,5.2916664 h 5.291674 l 1.984363,1.9976074 -3.307296,3.3072922 v 3.96875 l -2.645824,2.632602 h -3.96875 v -1.322919 l 1.322917,-1.322916 0.992187,-0.992187 0.992188,-0.992187 1.322917,-1.322917 V 9.2604163 H 14.552083 V 10.583333 L 13.229166,11.90625 H 12.567709 11.90625 L 10.583333,10.583333 V 9.2604163 H 9.9218756 v 1.9843757 l 1.3229144,1.322917 -1.3229144,1.322916 v 1.322917 L 6.6145831,18.534066 3.9687499,15.888235 7.9374997,11.90625 7.2760423,11.244792 2.6458332,15.888235 Z M 32.411458,18.520833 31.75,17.859375 l 1.313992,-1.261232 -0.008,-2.68888 -1.96745,-2.003013 2.645833,-2.6458333 1.322917,1.3229163 v 1.322917 l 2.645833,2.645833 0.661458,-0.661458 -1.984375,-1.984375 V 10.583333 L 34.395833,8.5989583 v -1.984375 h 4.630209 l 1.984375,1.984375 v 5.2916667 l -3.307292,3.307292 H 35.71875 l -1.322917,1.322916 z m 8.598963,-1.322917 v -1.322917 l 1.322915,-1.322916 V 11.90625 l 1.322915,-1.322917 1.322915,1.322917 h 2.645829 l 1.322915,1.322916 v 3.96875 l -1.322915,1.322917 H 42.333336 Z M 44.979069,9.2604167 46.301982,7.9375001 V 5.2916668 l 5.29177,0.018786 1.984381,1.9655932 v 1.3229129 l -1.984381,1.9843761 1.322915,1.322917 v 5.291666 h -1.322915 l -1.322915,-1.322916 v -3.96875 l -1.323025,-1.322917 -2.632606,0.01871 z m 8.599056,1.3229163 2.645833,-2.6458328 1.322454,1.3229166 v 5.2916662 l 2.64583,2.645834 v 1.322916 H 56.223497 L 54.900581,17.197917 V 11.924226 Z M 67.46875,11.90625 69.453124,9.9218755 71.451612,11.90625 74.083333,9.2604163 73.421867,8.5989589 71.437504,10.583333 70.114589,9.2604163 V 7.2760423 H 69.453124 L 68.130208,5.9531256 69.453124,4.630209 h 5.291658 L 79.374993,-1.033311e-7 82.020841,2.6458332 76.729163,7.9374997 78.713544,9.7882561 v 3.4409099 l -5.291585,5.291617 h -4.630274 v -5.29167 z" />
  </g>
</svg>
