<?xml version="1.0" encoding="UTF-8" standalone="no"?>
<!-- Created with Inkscape (http://www.inkscape.org/) -->

<svg
   width="324"
   height="80"
   viewBox="0 0 85.725 21.166666"
   version="1.1"
   id="svg1910"
   inkscape:version="1.2.1 (9c6d41e410, 2022-07-14, custom)"
   sodipodi:docname="mplogo_1.svg"
   inkscape:export-filename="mplogo_1.png"
   inkscape:export-xdpi="112.23348"
   inkscape:export-ydpi="112.23348"
   xmlns:inkscape="http://www.inkscape.org/namespaces/inkscape"
   xmlns:sodipodi="http://sodipodi.sourceforge.net/DTD/sodipodi-0.dtd"
   xmlns="http://www.w3.org/2000/svg"
   xmlns:svg="http://www.w3.org/2000/svg">
  <sodipodi:namedview
     id="namedview1912"
     pagecolor="#ffffff"
     bordercolor="#666666"
     borderopacity="1.0"
     inkscape:showpageshadow="2"
     inkscape:pageopacity="0.0"
     inkscape:pagecheckerboard="0"
     inkscape:deskcolor="#d1d1d1"
     inkscape:document-units="mm"
     showgrid="false"
     inkscape:zoom="3.1857968"
     inkscape:cx="155.37714"
     inkscape:cy="35.15604"
     inkscape:window-width="2560"
     inkscape:window-height="1600"
     inkscape:window-x="0"
     inkscape:window-y="0"
     inkscape:window-maximized="1"
     inkscape:current-layer="layer1">
    <inkscape:grid
       type="xygrid"
       id="grid6300"
       originx="0.013229165"
       originy="0.018708914" />
  </sodipodi:namedview>
  <defs
     id="defs1907" />
  <g
     inkscape:label="Layer 1"
     inkscape:groupmode="layer"
     id="layer1"
     transform="translate(0.01322917,0.01870892)">
    <g
       id="g2599-6-4-1-6-67"
       transform="matrix(1.8418071,0,0,1.8418071,-167.16435,-103.29921)"
       style="fill:#b3b3b3;stroke-width:0.126416;stroke-linecap:square;stroke-linejoin:round;stroke-dasharray:none" />
    <g
       id="g2599-6-4-1-6-67-7"
       transform="matrix(1.8418071,0,0,1.8418071,-143.33863,-103.26179)"
       style="fill:#b3b3b3;stroke-width:0.126416;stroke-linecap:square;stroke-linejoin:round;stroke-dasharray:none" />
    <g
       id="g2599-6-4-1-6-67-7-6"
       transform="matrix(1.8418071,0,0,1.8418071,-138.82759,-109.85766)"
       style="fill:#b3b3b3;stroke-width:0.126416;stroke-linecap:square;stroke-linejoin:round;stroke-dasharray:none" />
    <g
       id="g2599-6-4-1-6-67-7-6-1"
       transform="matrix(1.8418071,0,0,1.8418071,-128.21746,-108.53548)"
       style="fill:#b3b3b3;stroke-width:0.126416;stroke-linecap:square;stroke-linejoin:round;stroke-dasharray:none" />
    <g
       id="g2599-6-4-1-6-67-7-6-1-3"
       transform="matrix(1.8418071,0,0,1.8418071,-114.31226,-107.22183)"
       style="fill:#b3b3b3;stroke-width:0.126416;stroke-linecap:square;stroke-linejoin:round;stroke-dasharray:none" />
    <path
       id="path3391-9-0-3-1-6-9"
       style="fill:none;fill-opacity:1;stroke:#000000;stroke-width:0.11;stroke-linecap:square;stroke-linejoin:round;stroke-dasharray:none;stroke-opacity:1"
       d="m 67.733334,18.256251 h -3.96875 l -2.645833,-2.645834 v -3.307291 l 1.322916,-1.322917 1.322917,1.322917 v 1.984375 l 1.322917,1.322916 0.661458,-0.661458 -1.322917,-1.322917 V 11.641667 L 63.103126,10.31875 V 8.9958334 h 4.630208 v 1.9843756 1.984375 l 1.322917,1.322917 v 2.645833 z m -43.65625,-6.614584 -1.322916,-1.322917 3.96875,-3.9687499 h 1.984375 v 2.6458333 h 4.630208 v 1.9843756 l -1.322917,1.322917 h -1.322916 l 2.645833,2.645833 v 1.984375 h -1.322917 l -1.322916,-1.322917 h -0.661459 v 1.984375 l -0.661458,0.661459 h -0.661458 l -0.661459,-0.661459 v -3.307291 l -2.645833,-2.645834 z m -5.291658,6.614583 v -1.322917 l 1.322915,-1.322916 v -2.645833 l 1.322915,-1.322917 1.322915,1.322917 1.322914,-4.5e-5 2.64583,2.645834 V 18.25625 L 25.4,19.579122 24.077085,18.256206 h -1.322914 l -1.322915,1.322961 -1.322915,-4.5e-5 z M 1.5875,14.300735 9.5249993,6.3632314 6.8791666,3.7173963 9.5874993,1.0715611 14.816667,6.3499998 h 5.291674 L 22.092704,8.3476072 18.785408,11.6549 v 3.96875 l -2.645824,2.632602 h -3.96875 v -1.322919 l 1.322917,-1.322916 0.992187,-0.992187 0.992188,-0.992187 1.322917,-1.322917 V 10.31875 h -0.661459 v 1.322917 l -1.322917,1.322917 H 14.15521 13.493751 L 12.170834,11.641667 V 10.31875 h -0.661458 v 1.984376 l 1.322915,1.322917 -1.322915,1.322916 v 1.322917 L 8.2020832,19.5924 5.55625,16.946569 9.5249993,12.964584 8.8635419,12.303126 4.2333333,16.946569 Z m 32.411459,5.278432 -0.661458,-0.661458 1.313992,-1.261232 -0.008,-2.68888 -1.96745,-2.003013 2.645833,-2.645834 1.322917,1.322917 v 1.322917 l 2.645833,2.645833 0.661458,-0.661458 -1.984375,-1.984375 V 11.641667 L 35.983334,9.6572913 V 7.6729167 h 4.630209 l 1.984375,1.9843746 v 5.2916677 l -3.307292,3.307292 h -1.984375 l -1.322917,1.322916 z m 8.598963,-1.322917 v -1.322917 l 1.322915,-1.322916 v -2.645833 l 1.322915,-1.322917 1.322915,1.322917 h 2.645829 l 1.322915,1.322916 v 3.96875 l -1.322915,1.322917 h -5.291659 z m 3.968648,-7.9375 1.322913,-1.3229165 V 6.3500002 l 5.29177,0.018786 1.984381,1.9655932 v 1.3229129 l -1.984381,1.9843767 1.322915,1.322917 v 5.291666 h -1.322915 l -1.322915,-1.322916 v -3.96875 l -1.323025,-1.322917 -2.632606,0.01871 z m 8.599056,1.322917 2.645833,-2.6458334 1.322454,1.3229164 v 5.291667 l 2.64583,2.645834 v 1.322916 H 57.810998 L 56.488082,18.256251 V 12.98256 Z m 13.890625,1.322917 1.984374,-1.984375 1.998488,1.984375 L 75.670834,10.31875 75.009368,9.6572923 73.025005,11.641667 71.70209,10.31875 V 8.3343757 H 71.040625 L 69.717709,7.011459 71.040625,5.6885424 h 5.291658 l 4.630211,-4.6302092 2.645848,2.6458334 -5.291678,5.2916665 1.984381,1.8507569 v 3.44091 l -5.291585,5.291617 h -4.630274 v -5.29167 z" />
  </g>
</svg>
